<svg xmlns="http://www.w3.org/2000/svg" width="309" height="317" viewBox="0 0 309 317">
  <g id="Bayt_Logo" data-name="Bayt Logo" transform="translate(-843 -1872)">
    <g id="red_house" data-name="red house" transform="translate(850.283 1718.4)">
      <path id="Path_59" data-name="Path 59" d="M241.43,235.939l-16.491-15.005V171.157a5.746,5.746,0,0,0-5.751-5.751H179.542a5.746,5.746,0,0,0-5.751,5.751v3.2l-19.88-18.128a9.96,9.96,0,0,0-13.482,0L52.986,235.939a10.01,10.01,0,0,0,6.741,17.4H73.7v79.864a5.746,5.746,0,0,0,5.751,5.751H127.4a5.746,5.746,0,0,0,5.751-5.751V284.726h28.183v48.482a5.746,5.746,0,0,0,5.751,5.751h47.949a5.746,5.746,0,0,0,5.751-5.751V253.344h13.977a9.977,9.977,0,0,0,9.331-6.4A10.189,10.189,0,0,0,241.43,235.939Zm-26.469,5.941a5.746,5.746,0,0,0-5.751,5.751V327.5H172.725v-48.52a5.746,5.746,0,0,0-5.751-5.751H127.366a5.746,5.746,0,0,0-5.751,5.751v48.482H85.129V247.593a5.746,5.746,0,0,0-5.751-5.751H63.5L147.208,165.6,175.7,191.571a5.748,5.748,0,0,0,9.6-4.266V176.87h28.183v46.578a5.738,5.738,0,0,0,1.866,4.227l15.539,14.168H214.961Zm-151.463,0" transform="translate(0)" fill="#fff"/>
      <path id="Path_60" data-name="Path 60" d="M381.6,544.6" transform="translate(-205.486 -242.088)" fill="#fff"/>
      <path id="Path_61" data-name="Path 61" d="M155.556,176.8l33.629,26.545,1.295-19,34.2.609,3.237,50.081,16.224,17.252-20.49,9.559-3.237,82.378H179.435l-4.723-6.17L172.96,291.02l-36.98,2.095-.876,51.11-48.634.724V260.895L63.2,253.087,151.747,171.7Z" transform="translate(-8.348 -11.207)" fill="#fff"/>
    </g>
    <text id="_Bayt_بيت" data-name=" Bayt — بيت" transform="translate(843 2166)" fill="#414141" font-size="28" font-family="Roboto-Bold, Roboto" font-weight="700"><tspan x="0" y="0"> </tspan><tspan y="0" fill="#fff" font-size="68" font-family="Roboto-Light, Roboto" font-weight="300">Bayt — </tspan><tspan y="0" fill="#fff" font-size="68" font-family="GeezaPro, Geeza Pro" font-weight="400">بيت</tspan></text>
  </g>
</svg>
