<svg id="Layer_1" data-name="Layer 1" xmlns="http://www.w3.org/2000/svg" viewBox="0 0 515.98 114.75"><defs><style>.cls-1{fill:#1e1e1e;}</style></defs><title>Bayt-Black</title><path class="cls-1" d="M12.14,80.54V9.45H37q12.95,0,19.63,5t6.69,14.52a16.09,16.09,0,0,1-2.69,9.21A15.54,15.54,0,0,1,53.2,44a15,15,0,0,1,8.62,5.52A16.31,16.31,0,0,1,65,59.64q0,10.26-6.54,15.53T39.77,80.54ZM26.79,39.23H37.63Q48.72,39,48.71,30.4q0-4.84-2.81-7T37,21.31H26.79Zm0,10.36V68.78H39.33c3.46,0,6.15-.83,8.09-2.47a8.46,8.46,0,0,0,2.9-6.81q0-9.76-10.11-9.91Z"/><path class="cls-1" d="M105.64,80.54a15.65,15.65,0,0,1-1.41-4.73A17.1,17.1,0,0,1,90.9,81.52,18.78,18.78,0,0,1,78,77a14.46,14.46,0,0,1-5.1-11.33q0-8.4,6.22-12.89t18-4.54h6.49v-3a8.74,8.74,0,0,0-1.88-5.86c-1.25-1.46-3.23-2.2-5.93-2.2a8.39,8.39,0,0,0-5.59,1.71,5.81,5.81,0,0,0-2,4.69H74.1a14.18,14.18,0,0,1,2.83-8.5,18.75,18.75,0,0,1,8-6.12,29.19,29.19,0,0,1,11.62-2.23q9.76,0,15.5,4.91t5.74,13.8v22.9q0,7.51,2.1,11.37v.83ZM94,70.73a12.26,12.26,0,0,0,5.77-1.39,9.23,9.23,0,0,0,3.9-3.74V56.52H98.37q-10.61,0-11.28,7.32l0,.83A5.65,5.65,0,0,0,88.9,69,7.19,7.19,0,0,0,94,70.73Z"/><path class="cls-1" d="M148.37,60.57l9.76-32.86h15.14L152,88.75l-1.17,2.78q-4.74,10.35-15.63,10.35A22.18,22.18,0,0,1,129,101V90.26l2.15,0a11.62,11.62,0,0,0,6-1.22,8,8,0,0,0,3.1-4.06l1.66-4.34-18.5-53h15.18Z"/><path class="cls-1" d="M195.73,14.72v13h9V38.06h-9V64.43a6.36,6.36,0,0,0,1.12,4.2c.75.85,2.19,1.27,4.3,1.27a23.2,23.2,0,0,0,4.15-.34V80.25a28.91,28.91,0,0,1-8.54,1.27q-14.85,0-15.14-15V38.06h-7.71V27.71h7.71v-13Z"/><path class="cls-1" d="M304.86,51.44H237.44V39.92h67.42Z"/><path class="cls-1" d="M407.47,69.7h-7.8l-.83-.39A71.4,71.4,0,0,1,387,72.93q-3.11.51-15.87,1.84a144.21,144.21,0,0,1-14.4.89q-16.89,0-20.95-7.55a16,16,0,0,1-2.1-7.94,19.72,19.72,0,0,1,2.73-9.83q2.35-4.06,3.18-3.81c.17.12,0,1.14-.45,3a41.26,41.26,0,0,0-.63,6.35q0,5.34,2.85,7.3,4.69,3.36,18.35,3.37a151.21,151.21,0,0,0,25.45-2.35q12.88-2.1,13-3.49c.16-1.82-.66-3.92-2.48-6.29l-3.62-3.87,4.32-9.9a37.36,37.36,0,0,1,4.12,6.66q2.61,7.56,2.1,13h4.82ZM357.26,31.36l10.29,6.34L371,32l10.66,6.35-4.38,7.43L367,39.54l-3.37,5.84L352.76,39Z"/><path class="cls-1" d="M401.57,60.36h2.86q2.08,0,6.92.39a47.76,47.76,0,0,0,6.34.25q12.19-.51,12.19-1.08-.25-5.46-6.09-12.19l4.69-10.92Q430,38.91,435,50a42.19,42.19,0,0,1,2.35,10.41h3V69.7h-7.11l-1.33-.89a66.12,66.12,0,0,1-14.16,1.39c-.17,0-2.07-.08-5.71-.25s-6.16-.25-7.55-.25h-2.86ZM410.33,85l10.28,6.35,3.49-5.71L434.77,92l-4.38,7.42L420.1,93.18,416.74,99l-10.92-6.34Z"/><path class="cls-1" d="M437.43,60.36h2.86c.17,0,1.56.11,4.16.32s4.68.32,6.25.32q12.19,0,12.19-1.08-.25-5.46-6.1-12.19l4.7-10.79q1,.14,4.7,8.06,4.13,9.09,4.12,15.62a12.12,12.12,0,0,1-1.65,6.6c-.29.42-1.56,1-3.8,1.59A58,58,0,0,1,450.7,70.2q-3.24,0-6.25-.25c-2-.17-3.4-.25-4.16-.25h-2.86ZM451,86.07l10.41,6.35-4.57,7.43L446.38,93.5Z"/></svg>