<?xml version="1.0" encoding="UTF-8"?>
<svg width="81px" height="109px" viewBox="0 0 81 109" version="1.1" xmlns="http://www.w3.org/2000/svg" xmlns:xlink="http://www.w3.org/1999/xlink">
    <!-- Generator: Sketch 57.1 (83088) - https://sketch.com -->
    <title>Group 25 Copy 10</title>
    <desc>Created with Sketch.</desc>
    <g id="Page-1" stroke="none" stroke-width="1" fill="none" fill-rule="evenodd">
        <g id="Bespokemetrics-Logo" transform="translate(-716.000000, -589.000000)" fill="#29B7E5">
            <g id="Group-9" transform="translate(716.000000, 588.000000)">
                <g id="Group-25-Copy-10">
                    <g id="Group-24" transform="translate(0.000000, 0.920000)">
                        <polygon id="Fill-3" points="39.2572 33.3962 39.2572 13.3852 22.5242 23.3922"></polygon>
                        <polygon id="Fill-4" points="42.0409 13.3855 42.0409 33.3965 58.7699 23.3915"></polygon>
                        <polygon id="Fill-5" points="60.0917 45.8674 60.0917 25.8574 43.3607 35.8624"></polygon>
                        <polygon id="Fill-6" points="39.2572 58.3157 39.2572 38.3057 22.5242 48.3107"></polygon>
                        <polygon id="Fill-7" points="42.0409 38.3059 42.0409 58.3159 58.7699 48.3119"></polygon>
                        <polygon id="Fill-8" points="60.0917 70.7766 60.0917 50.7666 43.3607 60.7726"></polygon>
                        <polygon id="Fill-9" points="62.8754 50.7668 62.8754 70.7768 79.6064 60.7738"></polygon>
                        <polygon id="Fill-10" points="64.1967 73.2317 80.9277 83.2387 80.9277 63.2287"></polygon>
                        <polygon id="Fill-11" points="62.8754 95.6965 79.6064 85.6915 62.8754 75.6825"></polygon>
                        <polygon id="Fill-12" points="39.2572 108.1545 39.2572 88.1445 22.5242 98.1485"></polygon>
                        <polygon id="Fill-13" points="42.0409 108.1545 58.7699 98.1485 42.0409 88.1445"></polygon>
                        <polygon id="Fill-14" points="60.0917 95.6965 60.0917 75.6825 43.3607 85.6915"></polygon>
                        <polygon id="Fill-15" points="21.205 75.6838 21.205 95.6968 37.936 85.6918"></polygon>
                        <polygon id="Fill-16" points="18.4208 95.6965 18.4208 75.6835 1.6898 85.6915"></polygon>
                        <polygon id="Fill-17" points="18.4208 70.7766 18.4208 50.7656 1.6898 60.7726"></polygon>
                        <polygon id="Fill-18" points="18.4208 45.8562 18.4208 25.8472 1.6898 35.8512"></polygon>
                        <polygon id="Fill-19" points="18.4208 20.9358 18.4208 0.9268 1.6898 10.9328"></polygon>
                        <polygon id="Fill-20" points="0.3719 63.2248 0.3719 83.2358 17.1009 73.2318"></polygon>
                        <polygon id="Fill-21" points="0.3685 38.3059 0.3685 58.3159 17.1015 48.3119"></polygon>
                        <polygon id="Fill-22" points="0.3685 13.386 0.3685 33.399 17.1015 23.393"></polygon>
                        <polygon id="Fill-23" points="21.205 0.9265 21.205 20.9355 37.936 10.9325"></polygon>
                    </g>
                </g>
            </g>
        </g>
    </g>
</svg>