<svg xmlns="http://www.w3.org/2000/svg" width="180.2" height="207.548" viewBox="0 0 180.2 207.548">
  <g id="COMPASS-Suite-colour---Page-12" transform="translate(-0.131 -4.617)">
    <g id="COMPASS_Brand_Guidelines_V2.0" transform="translate(-1528 -568)">
      <g id="Group-13" transform="translate(1528.131 568)">
        <g id="Group-4" transform="translate(16.869)">
          <path id="Path_1" data-name="Path 1" d="M73.1,6.1l70,38.1v77.5L73.1,164,5.9,124,5.2,46.5Z" fill="#35940a"/>
          <g id="COMPASS-DX-Copy" transform="translate(1.6 3.995)">
            <g id="Group-22" transform="translate(0 0.547)">
              <path id="Fill-20" d="M68.9,142.9,15.5,112.2V48.4L68.9,17.7Zm35.4-21a5.325,5.325,0,0,1-2.4.6,5.536,5.536,0,0,1-4.9-3,4.93,4.93,0,0,1-.3-4.1,5.7,5.7,0,0,1,2.7-3.2L141.5,91V73.2L104.3,92a5.325,5.325,0,0,1-2.4.6,5.536,5.536,0,0,1-4.9-3,5.356,5.356,0,0,1,2.4-7.3l42.1-21.2V44.7L104.3,63.5a5.325,5.325,0,0,1-2.4.6,5.536,5.536,0,0,1-4.9-3,4.93,4.93,0,0,1-.3-4.1,5.7,5.7,0,0,1,2.7-3.2L135,35.9,74.2.9a7.213,7.213,0,0,0-6.7,0L3.5,37.8A7.6,7.6,0,0,0,.2,43.6v73.7a7.6,7.6,0,0,0,3.3,5.8l64,36.9a7.213,7.213,0,0,0,6.7,0l64-36.9a7.6,7.6,0,0,0,3.3-5.8v-14Z" fill="#fff" fill-rule="evenodd"/>
            </g>
          </g>
        </g>
        <g id="COMPASS-DX" transform="translate(0 191.265)">
          <path id="COMPASS" d="M0,10.3A9.71,9.71,0,0,1,.7,6.6,13.5,13.5,0,0,1,2.6,3.3,9.244,9.244,0,0,1,9.8,0a8.878,8.878,0,0,1,4.7,1.2,7.434,7.434,0,0,1,2.9,3.2L15.3,5.7A7.119,7.119,0,0,0,14.2,4a4.863,4.863,0,0,0-1.4-1.1,4.418,4.418,0,0,0-1.6-.6,9.971,9.971,0,0,0-1.6-.2,5.792,5.792,0,0,0-3,.7A10.957,10.957,0,0,0,4.4,4.9,7.065,7.065,0,0,0,3.1,7.5a9.667,9.667,0,0,0-.4,2.9,10.588,10.588,0,0,0,.5,3.1,8.414,8.414,0,0,0,1.5,2.6A5.782,5.782,0,0,0,7,17.9a6.812,6.812,0,0,0,2.8.7,11.135,11.135,0,0,0,1.7-.2,4.594,4.594,0,0,0,1.6-.7,14.309,14.309,0,0,0,1.5-1.1A4.569,4.569,0,0,0,15.7,15l2.2,1.2a4.831,4.831,0,0,1-1.4,2,9.51,9.51,0,0,1-2,1.5,8.544,8.544,0,0,1-2.4.9,9.862,9.862,0,0,1-2.4.3A8.6,8.6,0,0,1,5.8,20a10.342,10.342,0,0,1-3.1-2.4,10.53,10.53,0,0,1-2-3.4A10.723,10.723,0,0,1,0,10.3ZM29,20.9a8.719,8.719,0,0,1-4-.9,11.911,11.911,0,0,1-3.1-2.3,11.218,11.218,0,0,1-2-3.3,10.016,10.016,0,0,1-.7-3.9,10.016,10.016,0,0,1,.7-3.9,10.773,10.773,0,0,1,2-3.3A10.027,10.027,0,0,1,25,1a8.187,8.187,0,0,1,4-1,8.025,8.025,0,0,1,3.9.9,8.855,8.855,0,0,1,3,2.4,13.846,13.846,0,0,1,2,3.3,9.857,9.857,0,0,1,.7,3.8,10.016,10.016,0,0,1-.7,3.9,10.773,10.773,0,0,1-2,3.3,10.027,10.027,0,0,1-3.1,2.3A7.457,7.457,0,0,1,29,20.9ZM21.9,10.4a9.928,9.928,0,0,0,.5,3A9.386,9.386,0,0,0,23.8,16,6.252,6.252,0,0,0,26,17.8a6.885,6.885,0,0,0,2.9.7,6.04,6.04,0,0,0,3-.7,6.736,6.736,0,0,0,2.2-1.9,8.164,8.164,0,0,0,1.4-2.6,9.818,9.818,0,0,0,.5-2.9,9.928,9.928,0,0,0-.5-3A6.811,6.811,0,0,0,34,4.8,9.622,9.622,0,0,0,31.8,3,6.388,6.388,0,0,0,29,2.4a6.04,6.04,0,0,0-3,.7,7.871,7.871,0,0,0-2.2,1.8,7.222,7.222,0,0,0-1.4,2.6A9.291,9.291,0,0,0,21.9,10.4ZM59.8,20.7V4.8L53,17H51.5L44.6,4.8V20.7H42V.1h2.8l7.5,13.4L59.8.1h2.7V20.7Zm7.3,0V.1h8.6a5.421,5.421,0,0,1,2.5.6,7.492,7.492,0,0,1,2,1.5,5.71,5.71,0,0,1,1.3,2.1,6.882,6.882,0,0,1,.1,4.9,7.194,7.194,0,0,1-1.2,2.1,7.006,7.006,0,0,1-1.9,1.5,5.135,5.135,0,0,1-2.5.6H69.9v7.4H67.1ZM69.7,11h6a4.013,4.013,0,0,0,1.5-.3,3.126,3.126,0,0,0,1.1-.9A3.694,3.694,0,0,0,79,8.4a4.671,4.671,0,0,0,.3-1.7A4.671,4.671,0,0,0,79,5a6.376,6.376,0,0,0-.8-1.4A8.341,8.341,0,0,0,77,2.8a3.653,3.653,0,0,0-1.5-.3H69.7ZM89.7.1h2.2l8.4,20.6H97.5l-2.4-6H86.5l-2.4,6H81.3Zm4.8,12.6L90.8,3.2,87,12.7Zm20-8.2a3.631,3.631,0,0,0-.9-.8,5.388,5.388,0,0,0-1.3-.7,7.494,7.494,0,0,0-1.6-.5,11.019,11.019,0,0,0-1.8-.2,5.443,5.443,0,0,0-3.5.9,3.1,3.1,0,0,0-1.1,2.5,2.9,2.9,0,0,0,.3,1.4,1.789,1.789,0,0,0,1,.9,6.69,6.69,0,0,0,1.7.7q1.05.3,2.4.6a20.16,20.16,0,0,1,2.9.8,9.019,9.019,0,0,1,2.2,1.1,4.281,4.281,0,0,1,1.4,1.6,5.214,5.214,0,0,1,.5,2.3,5.536,5.536,0,0,1-.6,2.6,5.48,5.48,0,0,1-1.6,1.8,6.432,6.432,0,0,1-2.4,1,13.855,13.855,0,0,1-3,.3,13.267,13.267,0,0,1-4.5-.7,12.62,12.62,0,0,1-3.9-2.2l1.2-2.2a6.342,6.342,0,0,0,1.2,1c.5.3,1.1.6,1.7.9a6.637,6.637,0,0,0,2,.6,8.578,8.578,0,0,0,2.3.2,6.317,6.317,0,0,0,3.4-.8,2.561,2.561,0,0,0,1.2-2.3,2.41,2.41,0,0,0-.4-1.5,3.566,3.566,0,0,0-1.1-1,12.068,12.068,0,0,0-1.9-.8c-.7-.2-1.6-.4-2.5-.7-1-.3-2-.5-2.8-.8a7.454,7.454,0,0,1-2-1A4.427,4.427,0,0,1,101.8,8a4.638,4.638,0,0,1-.4-2.1,5.26,5.26,0,0,1,.6-2.6,5.755,5.755,0,0,1,1.5-1.9A8.359,8.359,0,0,1,105.8.2a9.476,9.476,0,0,1,3-.4,11.645,11.645,0,0,1,3.8.6,9.763,9.763,0,0,1,3,1.7Zm17.4,0a3.631,3.631,0,0,0-.9-.8,5.388,5.388,0,0,0-1.3-.7,7.494,7.494,0,0,0-1.6-.5,11.019,11.019,0,0,0-1.8-.2,5.443,5.443,0,0,0-3.5.9,3.1,3.1,0,0,0-1.1,2.5,2.9,2.9,0,0,0,.3,1.4,1.789,1.789,0,0,0,1,.9,6.69,6.69,0,0,0,1.7.7q1.05.3,2.4.6a20.16,20.16,0,0,1,2.9.8,9.019,9.019,0,0,1,2.2,1.1,4.28,4.28,0,0,1,1.4,1.6,5.215,5.215,0,0,1,.5,2.3,5.536,5.536,0,0,1-.6,2.6,5.48,5.48,0,0,1-1.6,1.8,6.432,6.432,0,0,1-2.4,1,13.855,13.855,0,0,1-3,.3,13.267,13.267,0,0,1-4.5-.7,12.62,12.62,0,0,1-3.9-2.2l1.2-2.2a6.342,6.342,0,0,0,1.2,1c.5.3,1.1.6,1.7.9a6.637,6.637,0,0,0,2,.6,8.578,8.578,0,0,0,2.3.2,6.317,6.317,0,0,0,3.4-.8,2.561,2.561,0,0,0,1.2-2.3,2.41,2.41,0,0,0-.4-1.5,3.566,3.566,0,0,0-1.1-1,12.068,12.068,0,0,0-1.9-.8c-.7-.2-1.6-.4-2.5-.7-1-.3-2-.5-2.8-.8a7.454,7.454,0,0,1-2-1A4.427,4.427,0,0,1,119.2,8a3.855,3.855,0,0,1-.2-1.9,5.26,5.26,0,0,1,.6-2.6,7.006,7.006,0,0,1,1.5-1.9A8.359,8.359,0,0,1,123.4.4a9.476,9.476,0,0,1,3-.4,11.644,11.644,0,0,1,3.8.6,11.088,11.088,0,0,1,3,1.7Z" fill="#c4c4c4"/>
          <path id="DX" d="M143.6,20.7V.1h7.7a12.458,12.458,0,0,1,4.5.8A9.138,9.138,0,0,1,159,3.1a7.753,7.753,0,0,1,1.9,3.3,12.9,12.9,0,0,1,.7,4,10.885,10.885,0,0,1-.7,4.2,9.879,9.879,0,0,1-2.1,3.2,9.879,9.879,0,0,1-3.2,2.1,11.582,11.582,0,0,1-4.2.7h-7.8Zm13.1-10.3a6.9,6.9,0,0,0-.4-2.5A5.014,5.014,0,0,0,155.2,6a4.072,4.072,0,0,0-1.7-1.2,5.558,5.558,0,0,0-2.3-.4h-2.9V16.6h2.9a5.555,5.555,0,0,0,2.3-.5,4.31,4.31,0,0,0,1.7-1.3,4.981,4.981,0,0,0,1-1.9A9.231,9.231,0,0,0,156.7,10.4ZM166.1.1l4.5,7.1L175.1.1h5.1l-7.1,10.4L180,20.7h-5.1l-4.3-6.8-4.3,6.8h-5.2L168,10.5,161,.1Z" fill="#fff"/>
        </g>
      </g>
    </g>
  </g>
</svg>
