<svg id="Layer_1" data-name="Layer 1" xmlns="http://www.w3.org/2000/svg" viewBox="0 0 352.91 598.14"><defs><style>.cls-1{fill:#fff;}.cls-1,.cls-11,.cls-8,.cls-9{stroke:#000;stroke-miterlimit:10;}.cls-10,.cls-2,.cls-4,.cls-8{fill:#999;}.cls-2,.cls-3,.cls-6{opacity:0.4;}.cls-3{fill:gray;}.cls-12,.cls-4{opacity:0.1;}.cls-5{fill:#666;opacity:0.2;}.cls-12,.cls-6{fill:#4d4d4d;}.cls-7{fill:#333;}.cls-9{fill:#ccc;}.cls-11{fill:none;}</style></defs><path id="neck" class="cls-1" d="M698.5,635.28a132.6,132.6,0,0,0-1,39.8c6.07,47.9,37.08,78.65,49,89.31H461.21c11.9-10.66,42.91-41.41,49-89.31a132.93,132.93,0,0,0-1-39.8Z" transform="translate(-432.42 -166.75)"/><g id="right_ear" data-name="right ear"><circle class="cls-1" cx="328.76" cy="255.53" r="23.65"/><circle class="cls-1" cx="324.45" cy="257.13" r="8.43"/><path class="cls-2" d="M775.18,403.36a23.65,23.65,0,0,1-32.49,33.9,23.65,23.65,0,1,0,32.49-33.9Z" transform="translate(-432.42 -166.75)"/></g><g id="left_ear" data-name="left ear"><circle class="cls-1" cx="24.15" cy="255.53" r="23.65"/><circle class="cls-1" cx="28.79" cy="257.13" r="8.43"/><path class="cls-3" d="M461.21,441.57A23.66,23.66,0,0,1,442.82,403,23.65,23.65,0,1,0,475,437.16,23.58,23.58,0,0,1,461.21,441.57Z" transform="translate(-432.42 -166.75)"/></g><g id="Hair"><g id="face"><path id="Face-2" data-name="Face" class="cls-1" d="M105.06,86.55H247.51A70.51,70.51,0,0,1,318,157.06V390.31A126.81,126.81,0,0,1,191.2,517.12H167.51a133,133,0,0,1-133-133V157.06a70.51,70.51,0,0,1,70.51-70.51Z"/><path class="cls-4" d="M608.7,602.65C530.42,602.65,467,528.74,467,437.56V550.91a133,133,0,0,0,133,133h23.69A126.82,126.82,0,0,0,750.44,557.06V437.56C750.44,528.74,687,602.65,608.7,602.65Z" transform="translate(-432.42 -166.75)"/></g><polygon class="cls-1" points="259.25 42.92 328.76 42.92 328.76 168.52 259.25 101.67 259.25 42.92"/><path id="hair-2" data-name="hair" class="cls-5" d="M691.66,209.68v55.77l9.46,0a134.94,134.94,0,0,0,19.49-50.26q.48-2.79.84-5.49Z" transform="translate(-432.42 -166.75)"/><path class="cls-1" d="M457.85,369.58c-9.47-2.16-20.68-137.61,31.58-179.18,16.09-12.8,45.52-22.52,73.22-23.12a128.26,128.26,0,0,1,17.46.83c23.13,2.46,61.17,3.94,127,0a149.15,149.15,0,0,1-.67,47.06,134.94,134.94,0,0,1-19.49,50.26c-103.94.23-143.7.17-151.81,0-1.33,0-7.05-.17-14.78.11s-11.41.4-13.44.82C494,269,489.09,294.69,474,334.07,464.76,358.09,460.15,370.1,457.85,369.58Z" transform="translate(-432.42 -166.75)"/></g><g id="eyes"><g id="left_eyebrow" data-name="left eyebrow"><rect class="cls-6" x="71.63" y="139.17" width="89.31" height="24.04" rx="12.02"/><rect class="cls-1" x="71.63" y="131.11" width="89.31" height="24.04" rx="12.02"/></g><g id="right_eyebrow" data-name="right eyebrow"><rect class="cls-6" x="198.88" y="139.17" width="89.38" height="24.04" rx="12.02"/><rect class="cls-1" x="198.88" y="131.11" width="89.38" height="24.04" rx="12.02"/></g><rect id="left_eye" data-name="left eye" class="cls-7" x="104.92" y="194.77" width="23.41" height="36.42" rx="9.93"/><rect id="rght_eye" data-name="rght eye" class="cls-7" x="231.51" y="194.91" width="23.41" height="36.42" rx="9.93"/></g><g id="Mouth"><path class="cls-1" d="M608.7,584.24a53.71,53.71,0,0,0,53.71-53.71H555A53.71,53.71,0,0,0,608.7,584.24Z" transform="translate(-432.42 -166.75)"/><path class="cls-8" d="M647.37,530.53a4.11,4.11,0,0,1,.5,1.94v8a4.2,4.2,0,0,1-4.19,4.19H576.22a4.19,4.19,0,0,1-4.19-4.19v-8a4.23,4.23,0,0,1,.49-1.94H555a53.71,53.71,0,1,0,107.42,0Z" transform="translate(-432.42 -166.75)"/><path class="cls-9" d="M608.7,583.91a53.68,53.68,0,0,0,46.51-26.86H610a12.14,12.14,0,0,0-12.14,12.14v13.62A53.69,53.69,0,0,0,608.7,583.91Z" transform="translate(-432.42 -166.75)"/><rect class="cls-10" x="177.07" y="394.37" width="31.53" height="5.03" rx="2.51"/></g><g id="nose"><circle id="left_nostril" data-name="left nostril" class="cls-1" cx="163.52" cy="288.63" r="5.75"/><circle id="right_nostril" data-name="right nostril" class="cls-1" cx="192.5" cy="288.63" r="5.75"/><path id="left_nose" data-name="left nose" class="cls-11" d="M571.12,467.29a24.26,24.26,0,0,1,.87-18.64c4.72-9.69,14.26-12.24,15.61-12.57" transform="translate(-432.42 -166.75)"/><path id="right_nose" data-name="right nose" class="cls-11" d="M650.75,467.29a24.26,24.26,0,0,0-.87-18.64c-4.72-9.69-14.26-12.24-15.6-12.57" transform="translate(-432.42 -166.75)"/><line class="cls-11" x1="192.84" y1="213.12" x2="192.84" y2="257.74"/><line class="cls-11" x1="167.06" y1="213.12" x2="167.06" y2="257.89"/><path class="cls-12" d="M571.94,470.33c-.53-1.43-4.9-12.78-.56-21.68,4.72-9.69,16.29-12.67,17.63-13,1.83-.43,4.7-2.88,7.59-5.58,2.68-2.51,2.17-3.37,2.28-5.41V382.11h-9.54l.68,40.18c-.63-.87-16.77-1.46-24.93,15.27-7.5,15.37-4.78,30.3-3.87,32.77Z" transform="translate(-432.42 -166.75)"/></g></svg>